<svg xmlns="http://www.w3.org/2000/svg" viewBox="0 0 363.81 125.29"><defs><style>.cls-1{fill:none;stroke:#fff;stroke-miterlimit:10;}.cls-2{fill:#fff;}</style></defs><title>bat</title><g id="Layer_2" data-name="Layer 2"><path d="M91.91-54.53a85,85,0,0,0-32.58,20.3A119.12,119.12,0,0,0,39.56-6.9S54-34.12,30.2-49.88c0,0,9.36,19,4.22,27.78.12-.41-.64-2.21-23.08-2.21s-23.2,1.8-23.08,2.21c-5.14-8.79,4.22-27.78,4.22-27.78-23.82,15.76-9.36,43-9.36,43C-24-20.22-33.46-32.58-45.46-41.9c-13-10.12-27.92-14.4-43.91-17.34-24.86-4.58-51.82-5.19-76.25,2.22a50.4,50.4,0,0,0-5,1.7c41.64,4.69,46.14,43.82,46.14,43.82,36.78-2.86,53.39,30,53.39,30C-42.88,4.94-33.61,32.31-33.61,32.31,1,32.31,11.34,62.65,11.34,62.65S21.69,32.31,56.28,32.31c0,0,9.27-27.37,37.43-13.78,0,0,16.61-32.89,53.39-30,0,0,4.51-39.13,46.14-43.82-.78.09-2.42-.89-3.16-1.14-3.09-1-6.24-1.84-9.41-2.55a155.33,155.33,0,0,0-35.57-3.5C127.16-62.32,108.67-60.52,91.91-54.53Z" transform="translate(170.57 62.65)"/><polygon class="cls-1" points="199.74 69.21 164.07 69.21 164.07 69.21 199.74 69.21 199.74 69.21"/><polygon class="cls-2" points="172.01 79.33 170.69 74.27 169.37 69.21 172.01 69.21 174.66 69.21 173.34 74.27 172.01 79.33"/><polygon class="cls-2" points="191.35 79.33 190.03 74.27 188.71 69.21 191.35 69.21 194 69.21 192.68 74.27 191.35 79.33"/></g></svg>